<svg id="Capa_1" enable-background="new 0 0 512 512" height="512" viewBox="0 0 512 512" width="512" xmlns="http://www.w3.org/2000/svg"><g><path d="m7.515 144.746c-1.06-71.09 55.567-130.916 126.663-131.347 33.123-.201 63.33 12.237 86.1 32.77 13.737 12.388 34.827 12.388 48.565 0 22.77-20.533 52.977-32.97 86.1-32.77 71.096.431 127.723 60.257 126.664 131.347-1.52 102.049-63.034 129.126-63.034 215.537 0 85.826-39.656 138.321-78.461 138.321-41.031 0-64.717-47.941-81.153-89.139-5.178-12.98-23.617-12.98-28.796 0-16.437 41.198-40.122 89.139-81.153 89.139-38.805 0-78.461-52.495-78.461-138.321-.001-86.411-61.514-113.488-63.034-215.537z" fill="#fcf2d0"/><path d="m97.617 19.081c-52.967 16.554-90.972 67.31-90.102 125.665 1.52 102.049 63.034 129.126 63.034 215.537 0 85.826 39.656 138.321 78.461 138.321 37.928 0 61.033-40.962 77.294-79.697-101.328-36.226-168.313-285.357-128.687-399.826z" fill="#fae0bd"/><g><g><path d="m192.325 180.315c.007 13.438-13.667 24.338-30.541 24.346s-30.559-10.878-30.565-24.315c-.007-13.438 13.667-24.338 30.541-24.347 16.874-.008 30.559 10.878 30.565 24.316z" fill="#eda1ab"/><path d="m296.827 180.263c.007 13.438 13.691 24.324 30.565 24.315 16.874-.008 30.548-10.908 30.541-24.346s-13.691-24.324-30.565-24.316c-16.874.009-30.547 10.909-30.541 24.347z" fill="#eda1ab"/><path d="m274.52 169.274c-.009-18.509-13.419-20.241-29.96-20.233-16.54.008-29.948 1.754-29.939 20.263s13.426 33.506 29.966 33.498c16.541-.008 29.942-15.019 29.933-33.528z" fill="#4e5660"/></g></g><ellipse cx="395.948" cy="325.219" fill="#eda1ab" rx="108.552" ry="108.552" transform="matrix(.707 -.707 .707 .707 -113.994 375.232)"/><path d="m417.386 298.095v-31.504c0-3.141-2.546-5.686-5.686-5.686h-31.504c-3.14 0-5.686 2.546-5.686 5.686v31.504c0 3.14-2.546 5.686-5.686 5.686h-31.504c-3.141 0-5.686 2.546-5.686 5.686v31.504c0 3.141 2.546 5.686 5.686 5.686h31.504c3.141 0 5.686 2.546 5.686 5.686v31.504c0 3.141 2.546 5.686 5.686 5.686h31.504c3.141 0 5.686-2.546 5.686-5.686v-31.504c0-3.14 2.546-5.686 5.686-5.686h31.504c3.141 0 5.686-2.546 5.686-5.686v-31.504c0-3.141-2.546-5.686-5.686-5.686h-31.504c-3.14 0-5.686-2.546-5.686-5.686z" fill="#fff"/><path d="m310.296 132.92c-4.135 0-7.492 3.349-7.5 7.486l-.022 12c-.008 4.142 3.344 7.506 7.486 7.514h.015c4.135 0 7.492-3.349 7.5-7.486l.022-12c.008-4.142-3.344-7.506-7.486-7.514zm-223.423 291.404c-5.855-19.214-8.824-40.76-8.824-64.04 0-89.009-61.545-115.697-63.035-215.649-1.006-67.5 52.734-123.332 119.21-123.735 30.026-.189 58.776 10.77 81.032 30.839 16.708 15.066 41.904 15.065 58.609 0 22.256-20.07 50.999-31.033 81.032-30.839 25.404.154 49.646 8.333 70.104 23.655 3.315 2.483 8.016 1.808 10.499-1.507 2.483-3.316 1.808-8.016-1.507-10.499-23.046-17.26-50.366-26.475-79.004-26.649-33.739-.201-66.126 12.118-91.168 34.7-10.799 9.738-27.719 9.739-38.52 0-24.836-22.396-56.889-34.702-90.339-34.702-.276 0-.553.001-.829.002-74.883.454-135.246 63.171-134.117 138.958 1.551 104.109 63.033 131.677 63.033 215.425 0 24.763 3.188 47.781 9.476 68.414 1.207 3.962 5.395 6.195 9.361 4.988 3.961-1.208 6.194-5.399 4.987-9.361zm382.248-189.11c9.907-22.286 19.391-50.457 19.985-90.357.458-30.66-9.515-61.003-28.08-85.44-2.505-3.297-7.209-3.941-10.509-1.435-3.298 2.506-3.941 7.211-1.435 10.509 16.546 21.779 25.433 48.821 25.026 76.143-.53 35.598-8.657 61.268-17.475 81.704-17.668-10.883-38.455-17.171-60.685-17.171-63.991 0-116.052 52.061-116.052 116.052 0 63.768 51.809 116.051 116.126 116.051-13.366 30.608-34.594 49.833-55.91 49.833-35.695 0-57.533-42.674-74.188-84.418-7.681-19.251-35.047-19.251-42.728 0-16.654 41.744-38.492 84.418-74.187 84.418-17.678 0-35.464-13.024-48.798-35.733-2.097-3.573-6.695-4.768-10.265-2.669-3.572 2.097-4.768 6.693-2.67 10.265 16.097 27.415 38.598 43.138 61.733 43.138 45.949 0 71.221-51.502 88.119-93.859 2.668-6.685 12.196-6.686 14.864 0 16.892 42.339 42.133 93.859 88.119 93.859 29.56 0 57.092-25.182 72.605-66.048 56.074-8.152 99.284-56.54 99.284-114.836 0-36.273-16.732-68.708-42.879-90.006zm-73.173 191.057c-55.72 0-101.052-45.332-101.052-101.052s45.332-101.052 101.052-101.052 101.052 45.332 101.052 101.052-45.332 101.052-101.052 101.052zm58.629-129.99h-29.691v-29.69c0-7.271-5.915-13.186-13.186-13.186h-31.504c-7.271 0-13.187 5.915-13.187 13.186v29.69h-29.69c-7.271 0-13.186 5.915-13.186 13.186v31.504c0 7.271 5.915 13.186 13.186 13.186h29.69v29.69c0 7.271 5.916 13.187 13.187 13.187h31.504c7.271 0 13.186-5.916 13.186-13.187v-29.69h29.691c7.271 0 13.186-5.915 13.186-13.186v-31.504c0-7.271-5.915-13.186-13.186-13.186zm-1.814 42.877h-29.69c-7.271 0-13.187 5.915-13.187 13.186v29.691h-27.877v-29.691c0-7.271-5.915-13.186-13.186-13.186h-29.69v-27.876h29.69c7.271 0 13.186-5.915 13.186-13.186v-29.69h27.877v29.69c0 7.271 5.916 13.186 13.187 13.186h29.69zm-268.125-209.431c-11.868 0-21.537 9.643-21.563 21.516-.009 4.142 3.342 7.507 7.484 7.516h.017c4.134 0 7.491-3.347 7.499-7.484.008-3.614 2.95-6.548 6.562-6.548h.014c3.619.008 6.557 2.958 6.549 6.577-.009 4.142 3.341 7.507 7.483 7.517h.017c4.134 0 7.49-3.347 7.499-7.483.026-11.889-9.626-21.583-21.516-21.61h-.045zm59.919 11.814c-12.155.006-37.449.019-37.435 27.768.011 22.159 16.304 40.994 37.451 40.994h.019c20.649-.01 37.439-18.417 37.428-41.032-.006-11.428-4.343-19.418-12.892-23.748-6.538-3.312-14.57-3.949-24.571-3.982zm.027 53.761h-.011c-12.897 0-22.445-12.295-22.452-26.001-.005-9.722 3.09-12.75 22.443-12.76h.12c6.768 0 13.579.293 17.667 2.363 2.423 1.227 4.665 3.333 4.669 10.374.007 14.344-10.058 26.018-22.436 26.024z"/></g></svg>