<svg id="Capa_1" enable-background="new 0 0 512.037 512.037" height="512" viewBox="0 0 512.037 512.037" width="512" xmlns="http://www.w3.org/2000/svg"><g><path d="m406.159 473.105h-322.279c-42.173 0-76.361-34.188-76.361-76.361v-210.395c0-15.354 12.447-27.8 27.8-27.8h419.401c15.354 0 27.8 12.447 27.8 27.8v210.394c0 42.174-34.188 76.362-76.361 76.362z" fill="#fcf2d0"/><path d="m35.319 158.549c-15.354 0-27.8 12.446-27.8 27.8v210.394c0 42.173 34.188 76.361 76.361 76.361h86.559c-59.223-44.283-91.862-161.321-75.714-314.555z" fill="#fae0bd"/><path d="m482.52 208.675h-475.001v-22.325c0-15.354 12.447-27.8 27.8-27.8h419.401c15.354 0 27.8 12.447 27.8 27.8z" fill="#ffd3bd"/><path d="m35.319 158.549c-15.354 0-27.8 12.446-27.8 27.8v22.325h83.578c.615-16.218 1.818-32.946 3.629-50.126h-59.407z" fill="#ffbe9d"/><path d="m357.31 299.099c0 65.71-50.374 119.169-112.291 119.169-61.918 0-112.291-53.459-112.291-119.169 0-32.167-87.316-32.566-125.21-18.71v116.354c0 42.173 34.188 76.361 76.361 76.361h322.279c42.173 0 76.361-34.188 76.361-76.361v-135.628c-51.799-25.539-125.209.707-125.209 37.984z" fill="#eda1ab"/><path d="m91.836 273.336c-27.946-3.85-63.552-.539-84.318 7.054v116.354c0 42.173 34.188 76.361 76.361 76.361h86.559c-43.336-32.405-72.434-103.77-78.602-199.769z" fill="#e8899e"/><path d="m296.082 235.012c-6.043-5.704-10.282-13.021-12.522-21.023-25.762-92.028-92.588-170.74-144.41-203.293-8.351-5.251-19.631-3.949-26.51 3.862-7.106 8.07-6.502 20.31.852 28.155 39.581 42.216 74.892 108.319 81.392 175.468.828 8.553-1.855 17.083-7.386 23.659-12.695 15.09-20.445 35.188-20.445 57.259 0 46.859 34.907 84.845 77.966 84.845s77.966-37.987 77.966-84.845c.001-25.599-10.426-48.535-26.903-64.087z" fill="#4e5660"/><circle cx="395.966" cy="395.985" fill="#e8899e" r="108.552"/><path d="m417.405 368.86v-31.504c0-3.141-2.546-5.686-5.686-5.686h-31.504c-3.141 0-5.686 2.546-5.686 5.686v31.504c0 3.14-2.546 5.686-5.686 5.686h-31.504c-3.14 0-5.686 2.546-5.686 5.686v31.504c0 3.141 2.546 5.686 5.686 5.686h31.504c3.14 0 5.686 2.546 5.686 5.686v31.504c0 3.141 2.546 5.687 5.686 5.687h31.504c3.141 0 5.686-2.546 5.686-5.687v-31.502c0-3.141 2.546-5.686 5.686-5.686h31.504c3.14 0 5.686-2.546 5.686-5.686v-31.504c0-3.141-2.546-5.686-5.686-5.686h-31.504c-3.14-.001-5.686-2.547-5.686-5.688z" fill="#fff"/><path d="m62.003 327.151-9.54 9.539c-2.929 2.929-2.929 7.678 0 10.607 2.928 2.929 7.677 2.93 10.607.001l9.54-9.539c2.929-2.929 2.929-7.678 0-10.607-2.929-2.928-7.678-2.929-10.607-.001zm18.865 63.532c-2.929 2.929-2.928 7.678.001 10.607l6.246 6.245c2.93 2.928 7.677 2.929 10.607-.001 2.929-2.929 2.928-7.678 0-10.607l-6.246-6.245c-2.931-2.928-7.679-2.929-10.608.001zm409.153-62.6v-141.733c0-19.465-15.836-35.301-35.301-35.301h-34.601c-4.142 0-7.5 3.357-7.5 7.5s3.358 7.5 7.5 7.5h34.601c11.194 0 20.301 9.106 20.301 20.301v14.825h-187.468c-3.723-11.738-8.158-23.477-13.256-35.126h107.972c4.142 0 7.5-3.357 7.5-7.5s-3.358-7.5-7.5-7.5h-114.925c-32.489-66.283-82.427-120.461-124.201-146.701-11.748-7.39-26.945-5.178-36.131 5.254-9.621 10.925-9.187 27.365 1.01 38.241 22.587 24.091 47.283 60.542 63.28 103.206h-135.983c-19.465 0-35.3 15.836-35.3 35.301v210.394c0 46.241 37.62 83.861 83.861 83.861h23.75c4.142 0 7.5-3.357 7.5-7.5s-3.358-7.5-7.5-7.5h-23.75c-37.97 0-68.861-30.891-68.861-68.861v-110.937c39.255-11.776 110.21-7.707 110.21 13.293 0 86.14 79.991 147.187 157.077 120.38 3.515 17.027 10.772 32.701 20.868 46.125h-159.758c-4.142 0-7.5 3.357-7.5 7.5s3.358 7.5 7.5 7.5h173.219c20.767 19.481 48.678 31.433 79.331 31.433 63.991 0 116.052-52.061 116.052-116.052.001-25.337-8.166-48.798-21.997-67.903zm-15-111.908v33.66c-48.511-17.245-112.994 2.553-123.691 39.03-7.367 3.081-14.35 6.902-20.858 11.368.32-27.588-10.751-53.223-29.241-70.676-3.88-3.662-6.934-8.238-9.001-13.383h182.791zm0 49.758v45.175c-28.091-26.181-66.585-36.439-103.253-28.629 17.414-20.343 64.858-32.986 103.253-16.546zm-460.002-79.583c0-11.194 9.106-20.301 20.3-20.301h141.157c3.578 11.376 6.482 23.119 8.542 35.126h-170v-14.825zm265.195 217.932c-67.731 25.865-139.985-27.825-139.985-105.182 0-39.632-84.579-39.373-125.21-28.846v-54.078h172.098c.099.91.214 1.816.303 2.729.628 6.485-1.435 13.085-5.66 18.107-14.32 17.021-22.206 39.071-22.206 62.088 0 50.919 38.34 92.345 85.466 92.345 12.471 0 24.536-2.87 35.618-8.379-.822 7.385-.913 14.321-.424 21.216zm-35.194-27.839c-38.856 0-70.466-34.696-70.466-77.345 0-19.489 6.636-38.109 18.684-52.432 6.805-8.089 10.126-18.734 9.112-29.209-7.237-74.768-47.82-141.941-83.385-179.875-4.802-5.121-5.107-13.058-.696-18.067 4.299-4.883 11.401-5.919 16.892-2.469 54.648 34.329 117.35 113.851 141.177 198.965 2.659 9.495 7.706 17.951 14.597 24.454 18.552 17.512 28.199 44.996 23.248 73.263-13.605 13.528-23.878 30.399-29.482 49.261-11.727 8.805-25.395 13.454-39.681 13.454zm150.946 120.594c-55.72 0-101.052-45.332-101.052-101.052 0-55.721 45.331-101.053 101.052-101.053 55.72 0 101.052 45.332 101.052 101.053.001 55.72-45.331 101.052-101.052 101.052zm58.629-129.99h-29.69v-29.69c0-7.271-5.915-13.186-13.186-13.186h-31.504c-7.271 0-13.186 5.915-13.186 13.186v29.69h-29.69c-7.271 0-13.186 5.915-13.186 13.186v31.504c0 7.272 5.915 13.186 13.186 13.186h29.69v29.69c0 7.272 5.915 13.187 13.186 13.187h31.504c7.271 0 13.186-5.915 13.186-13.187v-29.69h29.69c7.271 0 13.187-5.915 13.187-13.186v-31.504c0-7.271-5.916-13.186-13.187-13.186zm-1.813 42.877h-29.69c-7.271 0-13.187 5.915-13.187 13.186v29.691h-27.876v-29.691c0-7.271-5.916-13.186-13.187-13.186h-29.69v-27.877h29.69c7.271 0 13.187-5.915 13.187-13.187v-29.69h27.876v29.69c0 7.271 5.916 13.187 13.187 13.187h29.69zm-298.249 32.459 10.401-10.401c2.929-2.929 2.929-7.678 0-10.606s-7.678-2.929-10.606.001l-10.401 10.401c-2.929 2.929-2.929 7.678 0 10.607 2.929 2.927 7.677 2.928 10.606-.002z"/></g></svg>