<?xml version="1.0" encoding="iso-8859-1"?>
<!-- Generator: Adobe Illustrator 19.0.0, SVG Export Plug-In . SVG Version: 6.00 Build 0)  -->
<svg version="1.1" id="Capa_1" xmlns="http://www.w3.org/2000/svg" xmlns:xlink="http://www.w3.org/1999/xlink" x="0px" y="0px"
	 viewBox="0 0 512.297 512.297" style="enable-background:new 0 0 512.297 512.297;" xml:space="preserve">
<g>
	<path style="fill:#EDB288;" d="M58.1,181.654l2,43.8C60.1,225.454,20.8,197.654,58.1,181.654z"/>
	<path style="fill:#EDB288;" d="M270.9,225.454c0,0,39.3-27.7,2-43.8L270.9,225.454"/>
</g>
<g>
	<circle style="fill:#00EFD1;" cx="297.3" cy="348.454" r="12.5"/>
	<circle style="fill:#00EFD1;" cx="470.7" cy="348.454" r="12.5"/>
</g>
<g>
	<path style="fill:#4B5D63;" d="M272.2,147.854l68.4-47h1.6c2.6,12,0.5,24-5.7,34.5c-13.6,21.9-42.3,29.3-64.8,15.7l0,0h-4.2v-3.1
		h4.7V147.854z"/>
	<path style="fill:#4B5D63;" d="M340.6,100.754l-68.4,47h-4.7v-15.2c0-5.2-0.5-10.4-1.6-15.7h1.6l57.5-40.1l1-3.1
		c8.4,6.8,14.1,16.2,16.2,26.6L340.6,100.754z"/>
	<path style="fill:#4B5D63;" d="M256,85.654c13.6-21.9,42.3-28.7,64.8-15.7l5.2,3.7l-1,3.1l-57.5,40.2h-1.6
		C264.4,106.054,260.7,95.554,256,85.654z"/>
	<path style="fill:#4B5D63;" d="M186,31.854v3.1c-39.7,44.4-85.7,44.9-108.7,41.8c3.7-6.3,8.4-12,13.6-17.2
		c19.3-19.3,46-29.8,73.1-30.3C171.4,29.254,178.7,30.254,186,31.854z"/>
	<path style="fill:#4B5D63;" d="M219.4,45.454v1c-57.4,97.2-156.7,66.9-156.7,66.9c2.6-13.1,7.3-25.6,14.6-36.6
		c23,3.1,69,2.6,108.7-41.8v-3.1C198,34.454,209,39.154,219.4,45.454z"/>
	<path style="fill:#4B5D63;" d="M267.5,147.854v4.7c-21.4-11-37.1-30.3-43.9-53.3c-47.5,82-157.8,54.9-163.5,53.3v-19.9
		c0-6.3,1-13.1,2.1-19.3c0,0,99.3,30.3,156.7-66.9v-1c15.7,9.9,28.2,24,36.6,40.2c4.7,9.9,8.4,20.4,9.9,31.3
		c1,5.2,1.6,10.4,1.6,15.7L267.5,147.854z"/>
</g>
<path style="fill:#F7CAA5;" d="M267.5,152.554v51.2c0,27.2-11,53.8-30.3,73.1c-10.4,10.4-23,18.8-37.1,24c-11.5,4.2-23.5,6.3-36,6.3
	c-11,0-22.5-2.1-32.9-5.2c-42.3-14.1-71.1-53.8-71.1-98.2v-51.2c5.7,1.6,116,28.7,163.5-53.3
	C230.4,122.254,246.1,141.554,267.5,152.554z"/>
<path style="fill:#EDB288;" d="M201.1,327.554L201.1,327.554l-37.1,35.5l-33.4-35l0,0v-26.1c10.4,3.1,21.9,5.2,32.9,5.2
	c12.5,0,24.6-2.1,36-6.3l1,2.1L201.1,327.554z"/>
<g>
	<path style="fill:#D4E1F4;" d="M94.6,328.054h36l33.4,35.5v114.9H9.4v-79.4c-0.5-39.2,30.8-70.5,70-71.1h0.5L94.6,328.054
		L94.6,328.054z"/>
	<path style="fill:#D4E1F4;" d="M256.5,399.154c0-6.3-2.6-12.5-6.8-17.2c-4.7-4.2-11-6.8-17.2-6.8c-13.6,0-24,10.4-24.6,24
		c-0.5,13.1,9.4,24,22.5,24.6c0.5,0,1.6,0,2.1,0c6.3,0,12.5-2.6,17.2-6.8C253.9,412.154,256.5,405.854,256.5,399.154z
		 M267.5,328.054l2.6,1c-3.1,11-4.7,23-4.7,34.5c0,53.8,36,100.8,87.8,114.9H164v-114.9l37.1-35.5H267.5z"/>
</g>
<g>
	<path style="fill:#00EFD1;" d="M256.5,399.154c0,6.8-2.6,13.1-6.8,17.8c-4.7,4.2-11,6.8-17.2,6.8c-13.1,0.5-24-9.4-24.6-22.5
		c0-0.5,0-1.6,0-2.1c0.5-13.6,11-24,24.6-24c6.3,0,12.5,2.6,17.2,6.8C253.9,386.554,256.5,392.854,256.5,399.154z"/>
	<path style="fill:#00EFD1;" d="M390.8,415.854c-1,0.5-1,4.2-1,7.3h-15.7c0-3.1,0-6.3-1-7.3c-5.2-2.6-8.9-7.8-8.9-14.1v-5.2
		l-25.1-37.6c-8.4-20.9,5.2-45.5,27.7-47h30.8c18.8,2.1,32.4,18.8,30.3,37.1c-0.5,3.1-1,6.8-2.6,9.9l-24.6,37.6v5.2
		C400.2,407.954,396.5,413.254,390.8,415.854z"/>
</g>
<path style="fill:#00ACEA;" d="M470.7,335.854c-6.8,0-12,5.2-12,12v0.5c0,6.8,5.2,12,12,12c6.8,0.5,12-4.7,12.5-11.5v-0.5
	C483.3,341.654,477.5,335.854,470.7,335.854z M297.3,335.854c-6.8,0-12.5,5.7-12.5,12.5l0,0c0,6.8,5.2,12,12,12h0.5
	c6.8,0,12-5.2,12-12l0,0c0.5-6.8-4.7-12-11.5-12.5H297.3z M425.3,358.354c7.3-17.2-0.5-37.1-17.8-44.4c-3.1-1.6-6.3-2.1-9.9-2.6
	h-30.8c-22.5,1.6-36,26.1-27.7,47l25.1,37.6v5.2c0,6.3,3.7,11.5,8.9,14.1c1,1,1,4.2,1,7.3h15.7c0-3.1,0-6.8,1-7.3
	c5.7-2.6,9.9-8.4,9.9-14.6v-5.2L425.3,358.354z M384,244.954c65.3,0,118.6,53.3,118.6,118.6s-53.3,118.6-118.6,118.6
	s-118.6-53.3-118.6-118.6l0,0c0-11.5,1.6-23.5,4.7-34.5c3.1-9.9,7.3-19.9,13.1-28.7C305.1,265.854,343.2,244.954,384,244.954z"/>
<g>
	<path style="fill:#083863;" d="M389.7,436.754c-4.2,0-7.3-3.1-7.8-7.3v-0.5c-0.5,4.2-4.2,7.8-8.4,7.3c-4.2-0.5-7.8-4.2-7.3-8.4
		v-7.3c-6.3-4.2-9.9-11.5-9.9-19.3v-2.6l-23.5-35.5c-0.3-0.7-0.3-1-0.5-1.6c-5.2-12.5-4.2-26.6,2.6-38.7
		c6.8-11.5,18.3-18.3,31.3-19.3h31.9c13.1,1,24.6,7.8,31.3,19.3c7.3,11.5,8.4,26.1,3.1,38.7l-1,1.6l-23.5,35.4v2.6
		c0,7.8-3.7,15.7-10.4,19.9v6.8c0.5,4.2-2.6,8.4-6.8,8.9C390.8,436.754,390.3,436.754,389.7,436.754L389.7,436.754z M346.4,354.654
		l24,37.1c1,1,1.6,2.6,1.6,4.2v5.2c0,3.1,1.6,6.3,4.7,7.3c3.1,2.1,5.2,5.7,5.2,9.9c0-4.2,2.1-7.8,5.7-9.9c3.1-1,4.7-4.2,4.7-7.3
		v-5.2c0-1.6,0.5-3.1,1.6-4.2l24-37.1c3.1-7.8,2.6-16.7-2.1-23.5c-3.7-6.8-11-11.5-18.8-12h-29.8c-7.8,0.5-15.2,5.2-18.8,12
		C344.3,338.454,343.2,346.854,346.4,354.654z"/>
	<path style="fill:#083863;" d="M469.2,343.754c-4.2,0-7.8-3.7-7.8-7.8c0-3.7-1.6-6.8-4.2-9.4c-2.1-2.6-5.7-4.2-9.4-4.2
		c-7.3,0.5-13.1,6.3-13.1,13.6c0,4.2-3.7,7.8-7.8,7.8c-4.2,0-7.8-3.7-7.8-7.8c-2.1-16.2,8.9-30.8,25.1-32.9s30.8,8.9,32.9,25.1
		c0.5,2.6,0.5,5.2,0,7.8C477,340.054,473.3,343.754,469.2,343.754z"/>
	<path style="fill:#083863;" d="M338,343.754c-4.2,0-7.8-3.7-7.8-7.8c-0.5-7.3-6.3-13.1-13.6-13.6c-7.3,0-13.6,6.3-13.6,13.6
		c0,4.2-3.7,7.8-7.8,7.8c-4.2,0-7.8-3.7-7.8-7.8c0-16.2,13.1-29.3,29.3-29.3c15.7,0.5,28.7,13.6,29.3,29.3
		C345.9,340.054,342.2,343.754,338,343.754z"/>
	<path style="fill:#083863;" d="M297.3,368.254c-11.5,0.5-20.4-8.4-20.9-19.9s8.4-20.4,19.9-20.9s20.4,8.4,20.9,19.9
		c0,0.5,0,0.5,0,1C317.1,359.354,308.2,368.254,297.3,368.254L297.3,368.254z M297.3,343.754c-2.6,0-4.7,2.1-4.7,4.7l0,0
		c0.5,2.6,2.1,4.2,4.7,4.2c2.1,0,4.2-2.1,4.2-4.2l0,0c0.5-2.1-1.6-4.2-3.7-4.7H297.3z"/>
	<path style="fill:#083863;" d="M470.7,368.254c-11-1.6-18.8-12-16.7-23.5c1.6-8.9,8.4-15.7,16.7-16.7c11-1.6,21.4,5.7,23.5,16.7
		c1.6,11-5.7,21.4-16.7,23.5C474.9,368.754,472.8,368.754,470.7,368.254z M470.7,343.754c-2.1,0-4.2,2.1-4.2,4.2v0.5
		c0,2.1,2.1,4.2,4.2,4.2l0,0c2.6,0,4.2-1.6,4.7-4.2C475.4,345.854,473.3,343.754,470.7,343.754L470.7,343.754z"/>
	<path style="fill:#083863;" d="M119.6,228.254c-6.8,0-13.1-2.6-18.3-7.3c-4.7-5.2-7.3-11.5-7.3-18.3v-4.2c0-4.2,3.7-7.8,7.8-7.8
		s7.8,3.7,7.8,7.8v4.2c0,2.6,1,5.2,3.1,6.8c1.6,2.1,4.2,3.1,6.8,3.1c5.2-0.5,9.4-4.7,9.9-9.9v-4.2c-0.5-4.2,2.6-7.3,6.8-7.8
		c0.5,0,0.5,0,1,0c4.2,0,7.8,3.7,7.8,7.8v4.2C145.2,216.754,133.7,228.254,119.6,228.254L119.6,228.254z"/>
	<path style="fill:#083863;" d="M207.9,228.254c-14.1,0.5-25.1-10.4-25.6-24.6c0-0.5,0-0.5,0-1v-4.2c0-4.2,3.7-7.8,7.8-7.8
		c4.2,0,7.8,3.7,7.8,7.8v4.2c0.5,5.2,4.7,9.4,9.9,9.9c5.2-0.5,9.4-4.7,9.9-9.9v-4.2c0-4.2,3.7-7.8,7.8-7.8s7.8,3.7,7.8,7.8v4.2
		C233.5,216.754,222,228.254,207.9,228.254L207.9,228.254z"/>
	<path style="fill:#083863;" d="M384,237.154c-43.9,0-84.1,21.9-107.6,59c-4.2,7.3-7.8,14.6-11,22.5H209v-13.1
		c12-6.3,23.5-14.1,33.4-23c14.1-14.6,24.6-32.4,29.3-52.2c14.6-1.6,25.6-14.1,25.1-28.7c0.5-7.3-2.1-14.6-6.8-19.9
		c-3.7-4.2-7.8-6.8-13.1-8.4v-12c6.3,2.6,13.6,4.2,20.4,4.2c29.8,0,54.3-24.6,54.3-54.3c0-4.2-0.5-8.4-1.6-12.5
		c-2.6-12-9.4-23-18.8-30.8l-6.3-4.7c-21.9-13.1-50.2-9.4-67.9,8.9c-16.2-24-40.8-41.3-69-48.1c-7.8-1.6-16.2-2.6-24-2.6
		c-29.8,0-58,11.5-78.9,32.9c-5.7,5.2-11,11.5-15.2,18.3c-7.8,12-13.1,25.1-15.7,39.2c-1.6,6.8-2.1,14.1-2.1,21.4v40.2
		c-5.2,1.6-10.4,4.2-14.1,8.4c-4.7,5.2-7.8,12.5-7.8,19.9c0,15.2,11.5,27.2,26.6,28.7c8.4,35.5,34,64.3,68.4,76.8v11.5H79.9
		c-43.9,0.9-79.4,36.5-79.9,80.4v79.4c0,4.2,4.7,7.3,9.4,7.3h341.7c10.4,3.1,16.7,4.7,27.7,4.7c70,4.7,128.5-48.6,133.2-118.6
		c4.7-70-47-130.1-117-134.8C389.7,236.654,389.2,236.654,384,237.154z M46.5,201.654c0-3.7,1-6.8,3.1-9.4c0.9-1.1,1.6-1.5,2.6-2.1
		v13.6c0,3.1,0,6.8,0.5,9.9C48.6,211.054,46.5,206.354,46.5,201.654z M258.6,380.254l-3.1-3.7c-4.2-4.2-9.4-6.8-15.2-8.9v-33.4h20.4
		c-2.1,9.4-3.7,19.3-3.7,29.3C257,369.354,257.6,374.554,258.6,380.254z M232.5,382.954c8.9,0,16.2,7.3,16.2,16.2
		c0,4.7-1.6,8.9-4.7,12c-6.8,6.3-16.7,6.3-23.5,0c-6.3-6.8-6.3-17.2,0.5-23.5C224.1,384.454,228.3,382.954,232.5,382.954z
		 M278.5,192.254c2.1,2.6,3.7,5.7,3.1,9.4c0.5,4.7-2.1,9.4-5.7,12c0-3.7,1-6.8,1-9.9v-13.6
		C276.9,190.654,277.9,191.654,278.5,192.254z M335.4,113.854c-0.5,5.7-2.1,11.5-5.2,16.7c-9.4,15.2-27.2,22.5-44.4,17.8
		L335.4,113.854z M326.5,85.654c3.1,3.1,5.7,6.8,7.3,11l-56.9,39.7v-3.1c0-3.7-0.5-7.8-1.6-11.5L326.5,85.654z M314,75.154
		l-42.3,29.8c-1.6-6.3-4.2-12.5-6.8-18.3C276.4,71.554,296.8,66.854,314,75.154z M96.1,65.254c17.8-18.3,42.3-28.2,67.9-28.2l11.5,1
		c-21.9,21.4-52.2,32.9-83.1,31.3C93.5,67.854,94.6,66.354,96.1,65.254z M81.5,84.054l17.2,1c36.6,0,71.1-15.7,94.6-43.4l15.2,6.8
		c-45.5,70.6-114.5,63.8-136.9,59.1C73.7,99.254,77.3,91.354,81.5,84.054z M67.9,133.154c0-3.7,0.5-6.8,0.5-10.4
		c9.4,2.1,19.3,2.6,29.3,2.6c50.7,1,97.7-25.1,123.8-68.4c11.5,8.4,20.4,19.3,27.2,31.9c0,0.5,0.5,1,0.5,1.6
		c4.7,8.9,8.4,18.3,9.9,28.2c1,4.7,2.1,9.9,2.1,14.6v5.2c-15.2-8.9-25.6-23.5-29.3-40.8c-1-3.1-3.7-5.7-6.8-6.3
		c-3.1,0-6.3,1.6-8.4,4.2c-39.2,67.9-128,55.4-148.9,50.7L67.9,133.154L67.9,133.154z M67.9,203.754v-41.8
		c13.1,2.6,26.6,3.7,40.2,3.7c35.5,0,83.6-8.9,114.4-49.1c8.4,17.2,21.9,31.3,38.7,40.2v47c0,25.6-10.4,49.6-28.7,67.4
		c-9.9,9.9-21.9,17.2-35,21.9c-49.1,18.8-104.5-6.3-123.3-55.4C70,226.654,67.9,215.154,67.9,203.754z M156.7,470.154h-141v-71.1
		c0.5-35.5,28.7-63.7,64.3-64.8h8.9v34.5c-7.8,1-14.6,4.7-19.9,10.4c-7.3,7.3-11.5,17.8-11.5,28.2v44.4c0,4.2,1.6,7.8,5.7,7.8h12.5
		c4.2,0,7.8-3.7,7.8-7.8c0-4.2-3.7-7.8-7.8-7.8l0,0h-2.6v-36.6c0-6.3,1.6-12.5,5.7-17.2c4.7-4.2,11-6.8,17.2-6.8
		c13.1,0.5,23.5,11,24,24v36.6h-9.4c-4.2,0-7.8,3.7-7.8,7.8c0,4.2,3.7,7.8,7.8,7.8H127c4.7,0,8.4-3.1,8.9-7.8v-44.4
		c-1-18.3-13.6-34-31.3-38.7v-34.5h23l29.3,32.4L156.7,470.154L156.7,470.154z M141.1,323.854v-12c7.8,2.1,15.7,3.1,24,3.1
		c9.4,0,18.8-1.6,28.2-4.2v13.1l-27.2,28.2L141.1,323.854z M172.4,470.154v-103.4l31.3-31.9h20.9v34c-14.6,2.6-25.1,15.7-24.6,30.8
		c-0.5,17.8,13.6,31.9,31.3,32.4c0.5,0,0.5,0,1,0c8.4,0,16.7-3.1,22.5-9.4c5.2-4.7,8.4-11,9.4-17.8c9.4,27.2,27.2,50.2,51.2,65.3
		H172.4L172.4,470.154z M384,474.854c-8.9,0-17.8-1.6-26.6-3.7l-4.2-1h-0.5c-47.5-13.6-79.9-56.9-79.9-106.6c0-11,2.1-21.9,5.2-32.4
		l0,0c3.1-9.4,6.8-18.3,12-26.6c32.9-51.7,101.4-67.4,153.6-34.5c31.9,20.4,51.7,55.4,51.7,93.5
		C494.8,424.754,445.1,474.354,384,474.854z"/>
</g>
<g>
</g>
<g>
</g>
<g>
</g>
<g>
</g>
<g>
</g>
<g>
</g>
<g>
</g>
<g>
</g>
<g>
</g>
<g>
</g>
<g>
</g>
<g>
</g>
<g>
</g>
<g>
</g>
<g>
</g>
</svg>
