<svg id="Capa_1" enable-background="new 0 0 512 512" height="512" viewBox="0 0 512 512" width="512" xmlns="http://www.w3.org/2000/svg"><g><path d="m136 181h-60v30h60 60v-30z" fill="#407580"/><path d="m136 181h60v30h-60z" fill="#335e73"/><path d="m181 33.267v215.658c0 33.091-17.051 63.076-45 79.966-27.949-16.89-45-46.875-45-79.966v-215.658h-30v215.658c0 43.846 22.874 83.333 60 105.602v142.473h15 15v-142.473c37.126-22.269 60-61.756 60-105.602v-215.658z" fill="#e6f2f2"/><path d="m151 354.527c37.126-22.269 60-61.756 60-105.602v-215.658h-30v215.658c0 33.091-17.051 63.076-45 79.966v168.109h15z" fill="#b9d9d9"/><path d="m234.027 0c-.571.308-57.202 30-98.027 30-40.708 0-97.471-29.707-98.027-30l-13.946 26.572c2.578 1.348 63.824 33.428 111.973 33.428s109.395-32.08 111.973-33.428z" fill="#ff7366"/><path d="m234.027 0c-.571.308-57.202 30-98.027 30v30c48.149 0 109.395-32.08 111.973-33.428z" fill="#e6455a"/><path d="m136 482h-45v30h45 45v-30z" fill="#407580"/><path d="m136 482h45v30h-45z" fill="#335e73"/><path d="m376 181h-60v30h60 60v-30z" fill="#407580"/><path d="m376 181h60v30h-60z" fill="#335e73"/><path d="m421 33.267v215.658c0 33.091-17.051 63.076-45 79.966-27.949-16.89-45-46.875-45-79.966v-215.658h-30v215.658c0 43.846 22.874 83.333 60 105.602v142.473h15 15v-142.473c37.126-22.269 60-61.756 60-105.602v-215.658z" fill="#e6f2f2"/><path d="m391 354.527c37.126-22.269 60-61.756 60-105.602v-215.658h-30v215.658c0 33.091-17.051 63.076-45 79.966v168.109h15z" fill="#b9d9d9"/><path d="m474.027 0c-.571.308-57.202 30-98.027 30-40.708 0-97.471-29.707-98.027-30l-13.945 26.572c2.577 1.348 63.823 33.428 111.972 33.428s109.395-32.08 111.973-33.428z" fill="#ff7366"/><path d="m474.027 0c-.571.308-57.202 30-98.027 30v30c48.149 0 109.395-32.08 111.973-33.428z" fill="#e6455a"/><path d="m376 482h-45v30h45 45v-30z" fill="#407580"/><path d="m376 482h45v30h-45z" fill="#335e73"/></g></svg>